<svg width="64" height="64" viewBox="0 0 64 64" xmlns="http://www.w3.org/2000/svg">

  <defs>
    <linearGradient id="blade" x1="0" y1="0" x2="0" y2="1">
      <stop offset="0%" stop-color="#ffe8a3"/>
      <stop offset="50%" stop-color="#ff9b2f"/>
      <stop offset="100%" stop-color="#ff4b1f"/>
    </linearGradient>
  </defs>

  <!-- LAMA 1 -->
  <path
    d="M32 10
       C 28 16, 28 22, 32 26
       C 36 22, 36 16, 32 10 Z"
    fill="url(#blade)"
    stroke="#7a1d0a"
    stroke-width="2.5"
    stroke-linejoin="round"
  />

  <!-- LAMA 2 -->
  <path
    d="M54 32
       C 48 28, 42 28, 38 32
       C 42 36, 48 36, 54 32 Z"
    fill="url(#blade)"
    stroke="#7a1d0a"
    stroke-width="2.5"
    stroke-linejoin="round"
  />

  <!-- LAMA 3 -->
  <path
    d="M32 54
       C 28 48, 28 42, 32 38
       C 36 42, 36 48, 32 54 Z"
    fill="url(#blade)"
    stroke="#7a1d0a"
    stroke-width="2.5"
    stroke-linejoin="round"
  />

  <!-- LAMA 4 -->
  <path
    d="M10 32
       C 16 28, 22 28, 26 32
       C 22 36, 16 36, 10 32 Z"
    fill="url(#blade)"
    stroke="#7a1d0a"
    stroke-width="2.5"
    stroke-linejoin="round"
  />

  <!-- CERCHIO CENTRALE -->
  <circle
    cx="32" cy="32" r="6"
    fill="#facc15"
    stroke="#7a1d0a"
    stroke-width="2.5"
  />

</svg>